<svg width="32" height="32" viewBox="0 0 64 64" fill="none" xmlns="http://www.w3.org/2000/svg">
  <!-- Simple Neural Network Favicon - Thinking Labs -->
  
  <!-- Central neural core -->
  <circle cx="32" cy="32" r="12" fill="#000000"/>
  
  <!-- Neural nodes in a network pattern -->
  <circle cx="20" cy="20" r="4" fill="#000000"/>
  <circle cx="44" cy="20" r="4" fill="#000000"/>
  <circle cx="20" cy="44" r="4" fill="#000000"/>
  <circle cx="44" cy="44" r="4" fill="#000000"/>
  <circle cx="16" cy="32" r="4" fill="#000000"/>
  <circle cx="48" cy="32" r="4" fill="#000000"/>
  <circle cx="32" cy="16" r="4" fill="#000000"/>
  <circle cx="32" cy="48" r="4" fill="#000000"/>
  
  <!-- Neural connections/axons -->
  <path d="M20 20 L32 32" stroke="#000000" stroke-width="3"/>
  <path d="M44 20 L32 32" stroke="#000000" stroke-width="3"/>
  <path d="M20 44 L32 32" stroke="#000000" stroke-width="3"/>
  <path d="M44 44 L32 32" stroke="#000000" stroke-width="3"/>
  <path d="M16 32 L32 32" stroke="#000000" stroke-width="3"/>
  <path d="M48 32 L32 32" stroke="#000000" stroke-width="3"/>
  <path d="M32 16 L32 32" stroke="#000000" stroke-width="3"/>
  <path d="M32 48 L32 32" stroke="#000000" stroke-width="3"/>
</svg>
