<svg width="32" height="32" viewBox="0 0 64 64" fill="none" xmlns="http://www.w3.org/2000/svg">
  <!-- Neural Network Favicon - With Solid Background -->
  
  <!-- Background circle -->
  <circle cx="32" cy="32" r="30" fill="#000000"/>
  
  <!-- Central neural core -->
  <circle cx="32" cy="32" r="6" fill="white"/>
  
  <!-- Neural nodes in a network pattern -->
  <circle cx="20" cy="20" r="2" fill="white"/>
  <circle cx="44" cy="20" r="2" fill="white"/>
  <circle cx="20" cy="44" r="2" fill="white"/>
  <circle cx="44" cy="44" r="2" fill="white"/>
  <circle cx="16" cy="32" r="2" fill="white"/>
  <circle cx="48" cy="32" r="2" fill="white"/>
  <circle cx="32" cy="16" r="2" fill="white"/>
  <circle cx="32" cy="48" r="2" fill="white"/>
  
  <!-- Neural connections/axons -->
  <path d="M20 20 L32 32" stroke="white" stroke-width="1" opacity="0.9"/>
  <path d="M44 20 L32 32" stroke="white" stroke-width="1" opacity="0.9"/>
  <path d="M20 44 L32 32" stroke="white" stroke-width="1" opacity="0.9"/>
  <path d="M44 44 L32 32" stroke="white" stroke-width="1" opacity="0.9"/>
  <path d="M16 32 L32 32" stroke="white" stroke-width="1" opacity="0.9"/>
  <path d="M48 32 L32 32" stroke="white" stroke-width="1" opacity="0.9"/>
  <path d="M32 16 L32 32" stroke="white" stroke-width="1" opacity="0.9"/>
  <path d="M32 48 L32 32" stroke="white" stroke-width="1" opacity="0.9"/>
  
  <!-- Cross-connections between nodes (vertical only) -->
  <path d="M32 16 L32 48" stroke="white" stroke-width="0.5" opacity="0.7"/>
  
  <!-- Outer border -->
  <circle cx="32" cy="32" r="30" stroke="white" stroke-width="1" fill="none"/>
</svg>
