<svg width="64" height="64" viewBox="0 0 64 64" fill="none" xmlns="http://www.w3.org/2000/svg">
  <!-- Neural Network - April (Earth Day) -->
  
  <!-- Outer border in green -->
  <circle cx="32" cy="32" r="30" stroke="#059669" stroke-width="2" fill="none"/>
  
  <!-- Central neural core in blue (water) -->
  <circle cx="32" cy="32" r="6" fill="#0EA5E9"/>
  
  <!-- Neural nodes in green (earth) -->
  <circle cx="20" cy="20" r="2" fill="#059669"/>
  <circle cx="44" cy="20" r="2" fill="#059669"/>
  <circle cx="20" cy="44" r="2" fill="#059669"/>
  <circle cx="44" cy="44" r="2" fill="#059669"/>
  <circle cx="16" cy="32" r="2" fill="#059669"/>
  <circle cx="48" cy="32" r="2" fill="#059669"/>
  <circle cx="32" cy="16" r="2" fill="#059669"/>
  <circle cx="32" cy="48" r="2" fill="#059669"/>
  
  <!-- Neural connections in brown (earth) -->
  <path d="M20 20 L32 32" stroke="#92400E" stroke-width="1" opacity="0.8"/>
  <path d="M44 20 L32 32" stroke="#92400E" stroke-width="1" opacity="0.8"/>
  <path d="M20 44 L32 32" stroke="#92400E" stroke-width="1" opacity="0.8"/>
  <path d="M44 44 L32 32" stroke="#92400E" stroke-width="1" opacity="0.8"/>
  <path d="M16 32 L32 32" stroke="#92400E" stroke-width="1" opacity="0.8"/>
  <path d="M48 32 L32 32" stroke="#92400E" stroke-width="1" opacity="0.8"/>
  <path d="M32 16 L32 32" stroke="#92400E" stroke-width="1" opacity="0.8"/>
  <path d="M32 48 L32 32" stroke="#92400E" stroke-width="1" opacity="0.8"/>
  
  <!-- Cross-connections in brown (vertical only) -->
  <path d="M32 16 L32 48" stroke="#92400E" stroke-width="0.5" opacity="0.6"/>
</svg>
