<svg width="64" height="64" viewBox="0 0 64 64" fill="none" xmlns="http://www.w3.org/2000/svg">
  <!-- Outer circle -->
  <circle cx="32" cy="32" r="30" stroke="white" stroke-width="2" fill="none"/>
  
  <!-- Flower center -->
  <circle cx="32" cy="32" r="4" fill="white"/>
  
  <!-- 6 flower petals arranged symmetrically -->
  <!-- Top petal -->
  <circle cx="32" cy="16" r="3" fill="white"/>
  <!-- Top-right petal -->
  <circle cx="44" cy="20" r="3" fill="white"/>
  <!-- Bottom-right petal -->
  <circle cx="44" cy="44" r="3" fill="white"/>
  <!-- Bottom petal -->
  <circle cx="32" cy="48" r="3" fill="white"/>
  <!-- Bottom-left petal -->
  <circle cx="20" cy="44" r="3" fill="white"/>
  <!-- Top-left petal -->
  <circle cx="20" cy="20" r="3" fill="white"/>
  
  <!-- Petal connections to center -->
  <line x1="32" y1="16" x2="32" y2="28" stroke="white" stroke-width="1.5"/>
  <line x1="44" y1="20" x2="38" y2="26" stroke="white" stroke-width="1.5"/>
  <line x1="44" y1="44" x2="38" y2="38" stroke="white" stroke-width="1.5"/>
  <line x1="32" y1="48" x2="32" y2="36" stroke="white" stroke-width="1.5"/>
  <line x1="20" y1="44" x2="26" y2="38" stroke="white" stroke-width="1.5"/>
  <line x1="20" y1="20" x2="26" y2="26" stroke="white" stroke-width="1.5"/>
  
  <!-- Curved petal outlines to create flower shape -->
  <path d="M32 16 Q44 20 44 44 Q32 48 20 44 Q20 20 32 16" stroke="white" stroke-width="1" fill="none" opacity="0.8"/>
</svg>
