<svg width="64" height="64" viewBox="0 0 64 64" fill="none" xmlns="http://www.w3.org/2000/svg">
  <!-- Outer circle -->
  <circle cx="32" cy="32" r="30" stroke="white" stroke-width="2" fill="none"/>
  
  <!-- Central mandala core -->
  <circle cx="32" cy="32" r="6" fill="white"/>
  <circle cx="32" cy="32" r="4" fill="none" stroke="white" stroke-width="1"/>
  
  <!-- Inner mandala ring - 8 elements -->
  <circle cx="32" cy="20" r="2" fill="white"/>
  <circle cx="40" cy="24" r="2" fill="white"/>
  <circle cx="44" cy="32" r="2" fill="white"/>
  <circle cx="40" cy="40" r="2" fill="white"/>
  <circle cx="32" cy="44" r="2" fill="white"/>
  <circle cx="24" cy="40" r="2" fill="white"/>
  <circle cx="20" cy="32" r="2" fill="white"/>
  <circle cx="24" cy="24" r="2" fill="white"/>
  
  <!-- Middle mandala ring - 12 elements -->
  <circle cx="32" cy="14" r="1.5" fill="white"/>
  <circle cx="44" cy="18" r="1.5" fill="white"/>
  <circle cx="50" cy="26" r="1.5" fill="white"/>
  <circle cx="50" cy="38" r="1.5" fill="white"/>
  <circle cx="44" cy="46" r="1.5" fill="white"/>
  <circle cx="32" cy="50" r="1.5" fill="white"/>
  <circle cx="20" cy="46" r="1.5" fill="white"/>
  <circle cx="14" cy="38" r="1.5" fill="white"/>
  <circle cx="14" cy="26" r="1.5" fill="white"/>
  <circle cx="20" cy="18" r="1.5" fill="white"/>
  <circle cx="26" cy="14" r="1.5" fill="white"/>
  <circle cx="38" cy="14" r="1.5" fill="white"/>
  
  <!-- Outer mandala ring - 16 elements -->
  <circle cx="32" cy="8" r="1" fill="white"/>
  <circle cx="48" cy="12" r="1" fill="white"/>
  <circle cx="56" cy="20" r="1" fill="white"/>
  <circle cx="56" cy="32" r="1" fill="white"/>
  <circle cx="56" cy="44" r="1" fill="white"/>
  <circle cx="48" cy="52" r="1" fill="white"/>
  <circle cx="32" cy="56" r="1" fill="white"/>
  <circle cx="16" cy="52" r="1" fill="white"/>
  <circle cx="8" cy="44" r="1" fill="white"/>
  <circle cx="8" cy="32" r="1" fill="white"/>
  <circle cx="8" cy="20" r="1" fill="white"/>
  <circle cx="16" cy="12" r="1" fill="white"/>
  <circle cx="24" cy="12" r="1" fill="white"/>
  <circle cx="40" cy="12" r="1" fill="white"/>
  <circle cx="48" cy="12" r="1" fill="white"/>
  <circle cx="56" cy="20" r="1" fill="white"/>
  
  <!-- Harmonious connecting curves -->
  <path d="M32 20 Q40 24 44 32 Q40 40 32 44 Q24 40 20 32 Q24 24 32 20" stroke="white" stroke-width="0.8" fill="none" opacity="0.7"/>
  <path d="M32 14 Q44 18 50 26 Q50 38 44 46 Q32 50 20 46 Q14 38 14 26 Q20 18 32 14" stroke="white" stroke-width="0.6" fill="none" opacity="0.5"/>
</svg>
