<svg width="64" height="64" viewBox="0 0 64 64" fill="none" xmlns="http://www.w3.org/2000/svg">
  <!-- Neural Network - Pride Month (June) -->
  
  <!-- Outer border in rainbow colors -->
  <circle cx="32" cy="32" r="30" stroke="#E40303" stroke-width="2" fill="none"/>
  
  <!-- Central neural core in red -->
  <circle cx="32" cy="32" r="6" fill="#E40303"/>
  
  <!-- Neural nodes in rainbow colors -->
  <circle cx="20" cy="20" r="2" fill="#FF8C00"/>
  <circle cx="44" cy="20" r="2" fill="#FFED00"/>
  <circle cx="20" cy="44" r="2" fill="#008026"/>
  <circle cx="44" cy="44" r="2" fill="#004DDF"/>
  <circle cx="16" cy="32" r="2" fill="#760188"/>
  <circle cx="48" cy="32" r="2" fill="#FF8C00"/>
  <circle cx="32" cy="16" r="2" fill="#FFED00"/>
  <circle cx="32" cy="48" r="2" fill="#008026"/>
  
  <!-- Neural connections in rainbow colors -->
  <path d="M20 20 L32 32" stroke="#FF8C00" stroke-width="1" opacity="0.8"/>
  <path d="M44 20 L32 32" stroke="#FFED00" stroke-width="1" opacity="0.8"/>
  <path d="M20 44 L32 32" stroke="#008026" stroke-width="1" opacity="0.8"/>
  <path d="M44 44 L32 32" stroke="#004DDF" stroke-width="1" opacity="0.8"/>
  <path d="M16 32 L32 32" stroke="#760188" stroke-width="1" opacity="0.8"/>
  <path d="M48 32 L32 32" stroke="#FF8C00" stroke-width="1" opacity="0.8"/>
  <path d="M32 16 L32 32" stroke="#FFED00" stroke-width="1" opacity="0.8"/>
  <path d="M32 48 L32 32" stroke="#008026" stroke-width="1" opacity="0.8"/>
  
  <!-- Cross-connections in rainbow colors (vertical only) -->
  <path d="M32 16 L32 48" stroke="#FFED00" stroke-width="0.5" opacity="0.6"/>
</svg>
