<svg width="64" height="64" viewBox="0 0 64 64" fill="none" xmlns="http://www.w3.org/2000/svg">
  <!-- Neural Network - November (Native American Heritage Month) -->
  
  <!-- Outer border in brown -->
  <circle cx="32" cy="32" r="30" stroke="#92400E" stroke-width="2" fill="none"/>
  
  <!-- Central neural core in brown -->
  <circle cx="32" cy="32" r="6" fill="#92400E"/>
  
  <!-- Neural nodes in earth tones -->
  <circle cx="20" cy="20" r="2" fill="#A16207"/>
  <circle cx="44" cy="20" r="2" fill="#A16207"/>
  <circle cx="20" cy="44" r="2" fill="#A16207"/>
  <circle cx="44" cy="44" r="2" fill="#A16207"/>
  <circle cx="16" cy="32" r="2" fill="#A16207"/>
  <circle cx="48" cy="32" r="2" fill="#A16207"/>
  <circle cx="32" cy="16" r="2" fill="#A16207"/>
  <circle cx="32" cy="48" r="2" fill="#A16207"/>
  
  <!-- Neural connections in tan -->
  <path d="M20 20 L32 32" stroke="#D97706" stroke-width="1" opacity="0.8"/>
  <path d="M44 20 L32 32" stroke="#D97706" stroke-width="1" opacity="0.8"/>
  <path d="M20 44 L32 32" stroke="#D97706" stroke-width="1" opacity="0.8"/>
  <path d="M44 44 L32 32" stroke="#D97706" stroke-width="1" opacity="0.8"/>
  <path d="M16 32 L32 32" stroke="#D97706" stroke-width="1" opacity="0.8"/>
  <path d="M48 32 L32 32" stroke="#D97706" stroke-width="1" opacity="0.8"/>
  <path d="M32 16 L32 32" stroke="#D97706" stroke-width="1" opacity="0.8"/>
  <path d="M32 48 L32 32" stroke="#D97706" stroke-width="1" opacity="0.8"/>
  
  <!-- Cross-connections in tan (vertical only) -->
  <path d="M32 16 L32 48" stroke="#D97706" stroke-width="0.5" opacity="0.6"/>
</svg>
